<?xml version="1.0" standalone="no"?>
<!DOCTYPE svg PUBLIC "-//W3C//DTD SVG 20010904//EN"
 "http://www.w3.org/TR/2001/REC-SVG-20010904/DTD/svg10.dtd">
<svg version="1.0" xmlns="http://www.w3.org/2000/svg"
 width="700.000000pt" height="700.000000pt" viewBox="0 0 700.000000 700.000000"
 preserveAspectRatio="xMidYMid meet">
<metadata>
Created by potrace 1.14, written by Peter Selinger 2001-2017
</metadata>
<g transform="translate(0.000000,700.000000) scale(0.100000,-0.100000)"
fill="#000000" stroke="none">
<path d="M2607 6184 c-1 -1 -49 -4 -107 -8 -483 -30 -958 -199 -1365 -485
-223 -156 -454 -384 -621 -611 -58 -80 -134 -198 -134 -209 0 -5 -4 -11 -9
-13 -12 -4 -131 -243 -174 -348 -66 -162 -143 -430 -162 -570 -3 -25 -8 -56
-10 -70 -21 -135 -27 -500 -12 -645 28 -255 104 -548 202 -780 41 -97 140
-285 197 -373 56 -87 134 -199 148 -212 3 -3 16 -18 29 -35 124 -162 328 -356
536 -510 107 -80 383 -235 495 -279 25 -10 59 -24 75 -31 61 -28 298 -102 380
-119 6 -1 24 -5 40 -9 58 -13 194 -35 255 -41 25 -3 74 -8 110 -12 73 -7 325
-7 410 1 339 31 665 116 917 239 29 14 55 26 56 26 11 0 223 120 286 162 l75
50 50 -16 c215 -66 398 -93 621 -94 157 0 292 13 439 44 528 109 1005 432
1309 887 74 110 182 314 208 392 7 22 16 45 20 50 9 14 56 169 69 230 19 82
20 86 36 185 11 62 17 161 18 285 1 194 -8 317 -30 415 -3 14 -8 36 -10 50
-17 91 -77 281 -123 385 -228 523 -644 925 -1176 1135 -44 18 -87 33 -96 35
-9 2 -47 12 -85 23 -61 18 -115 31 -194 48 -134 28 -542 41 -637 19 -29 -7
-37 -2 -100 58 -345 330 -754 556 -1213 672 -52 13 -111 26 -130 29 -19 3 -44
8 -56 10 -12 2 -45 8 -75 11 -30 4 -65 9 -79 11 -67 9 -376 23 -383 18z"/>
</g>
</svg>
